<svg width="23.000000" height="23.000000" viewBox="0 0 23 23" fill="none" xmlns="http://www.w3.org/2000/svg" xmlns:xlink="http://www.w3.org/1999/xlink">
	<desc>
			Created with Pixso.
	</desc>
	<defs/>
	<path id="Vector" d="M16.3 14.29L15.24 14.29L14.87 13.93C16.47 12.06 17.3 9.52 16.84 6.81C16.21 3.1 13.12 0.14 9.39 -0.31C3.75 -1 -1 3.74 -0.31 9.38C0.15 13.12 3.11 16.21 6.82 16.84C9.52 17.29 12.07 16.46 13.94 14.86L14.3 15.24L14.3 16.29L19.96 21.96C20.51 22.5 21.4 22.5 21.95 21.96C22.5 21.41 22.5 20.52 21.95 19.97L16.3 14.29ZM8.3 14.29C4.98 14.29 2.3 11.61 2.3 8.29C2.3 4.97 4.98 2.29 8.3 2.29C11.62 2.29 14.3 4.97 14.3 8.29C14.3 11.61 11.62 14.29 8.3 14.29Z" fill="#FAFAFA" fill-opacity="1.000000" fill-rule="nonzero"/>
</svg>
